<svg width="16" height="16" viewBox="0 0 16 16" fill="none" xmlns="http://www.w3.org/2000/svg">
<g clip-path="url(#clip0_2186_28)">
<path d="M0 7.81389C0.00662446 7.79202 0.011924 7.7695 0.014905 7.74698C0.0271603 7.51612 0.0298101 7.2826 0.0546518 7.05141C0.0934049 6.30285 0.343147 5.58078 0.775062 4.96802C0.969766 4.70451 1.22358 4.49037 1.51611 4.34282C1.80863 4.19526 2.1317 4.11841 2.45933 4.11843H7.82018C7.92452 4.11843 7.92451 4.11843 7.92451 4.01409V3.64147C7.92451 3.56462 7.90199 3.5474 7.83012 3.5474H4.18103C4.11876 3.5474 4.09657 3.52984 4.09657 3.46526V1.64485C4.10849 1.3812 4.21846 1.13146 4.40461 0.944316C4.65182 0.681201 4.95964 0.482546 5.30123 0.365669C5.71839 0.21568 6.15211 0.116482 6.593 0.0702184C7.19567 0.00140851 7.80304 -0.0168725 8.40876 0.0155665C9.06194 0.0278218 9.70815 0.147725 10.3219 0.370638C10.7429 0.51262 11.115 0.771026 11.3951 1.11589C11.6203 1.40567 11.7316 1.76784 11.7081 2.13407C11.6932 2.44211 11.7081 2.75246 11.7081 3.06282V4.78187C11.7081 5.11939 11.7081 5.45955 11.6932 5.79475C11.6908 6.15825 11.5781 6.51246 11.37 6.81053C11.1619 7.10861 10.8683 7.33651 10.5279 7.46411C10.1977 7.59931 9.84369 7.66678 9.48689 7.66252H5.69108C5.28969 7.65483 4.89407 7.75884 4.54836 7.96294C4.10626 8.2408 3.7913 8.68152 3.67161 9.18979C3.59958 9.44599 3.56357 9.71097 3.56462 9.9771V11.6981C3.56462 11.8124 3.56462 11.8101 3.45035 11.8124C3.03798 11.8124 2.62561 11.825 2.20826 11.8124C1.79983 11.7959 1.41025 11.6361 1.10794 11.361C0.756521 11.0413 0.494516 10.6356 0.347784 10.1838C0.199072 9.77309 0.104648 9.34473 0.0669071 8.90957C0.0420653 8.63134 0.0321287 8.35312 0.014905 8.07754C0.0116759 8.0467 0.00669959 8.01607 0 7.98579L0 7.81389Z" fill="#0277BD"/>
<path d="M5.03564 1.90061C5.03663 2.03842 5.07839 2.17286 5.15567 2.28697C5.23295 2.40108 5.34228 2.48976 5.46989 2.54182C5.59749 2.59388 5.73765 2.60699 5.8727 2.57951C6.00775 2.55202 6.13164 2.48516 6.22874 2.38737C6.32585 2.28957 6.39182 2.16521 6.41835 2.02998C6.44488 1.89474 6.43077 1.75467 6.37781 1.62744C6.32484 1.5002 6.23539 1.3915 6.12074 1.31503C6.00608 1.23857 5.87135 1.19776 5.73353 1.19775C5.54801 1.19915 5.37056 1.27381 5.23984 1.40546C5.10912 1.53711 5.03573 1.71508 5.03564 1.90061Z" fill="#131821"/>
<path d="M15.8985 8.0821C15.8918 8.10396 15.8865 8.12648 15.8836 8.14934C15.8713 8.3802 15.8686 8.61371 15.8438 8.84491C15.805 9.59342 15.5552 10.3157 15.1234 10.9283C14.9289 11.1922 14.6752 11.4068 14.3827 11.5548C14.0902 11.7027 13.767 11.78 13.4391 11.7802H8.07828C7.97394 11.7802 7.97394 11.7802 7.97394 11.8845V12.2572C7.97394 12.334 7.99647 12.3516 8.06834 12.3516H11.7178C11.7797 12.3516 11.8022 12.3688 11.8022 12.4334V14.2538C11.7901 14.5174 11.6803 14.7671 11.4942 14.9543C11.2469 15.2175 10.9389 15.4161 10.5972 15.533C10.1809 15.6827 9.7481 15.7819 9.30811 15.8284C8.70529 15.8973 8.09782 15.9155 7.49201 15.8831C6.83919 15.871 6.19287 15.751 5.5792 15.528C5.15823 15.386 4.78612 15.1276 4.50604 14.7827C4.28085 14.493 4.16951 14.1308 4.19303 13.7646C4.20794 13.4565 4.19303 13.1462 4.19303 12.8358V11.1168C4.19303 10.7792 4.19303 10.4391 4.20794 10.1039C4.21028 9.74041 4.32291 9.38621 4.53091 9.08813C4.73892 8.79005 5.03251 8.56213 5.37285 8.43452C5.70307 8.29933 6.05709 8.23186 6.41388 8.23612H10.2074C10.6088 8.2438 11.0044 8.13979 11.3501 7.9357C11.7927 7.65719 12.1078 7.21542 12.2269 6.7062C12.2989 6.44999 12.3349 6.18501 12.3338 5.91888V4.19784C12.3338 4.08357 12.3338 4.08622 12.4481 4.08357C12.8605 4.08357 13.2729 4.07132 13.6902 4.08357C14.0987 4.10024 14.4883 4.26032 14.7905 4.53569C15.1419 4.85533 15.4039 5.26106 15.5507 5.71286C15.6988 6.12517 15.7924 6.55511 15.8289 6.99171C15.8537 7.26994 15.8637 7.54817 15.8812 7.82374C15.8845 7.85389 15.8895 7.8837 15.8961 7.91317C15.8978 7.96783 15.8985 8.02413 15.8985 8.0821Z" fill="#FFC107"/>
<path d="M10.863 13.9086C10.8621 13.7708 10.8203 13.6364 10.743 13.5223C10.6657 13.4081 10.5564 13.3195 10.4288 13.2674C10.3012 13.2153 10.161 13.2022 10.026 13.2297C9.89094 13.2572 9.76705 13.3241 9.66994 13.4219C9.57284 13.5197 9.50686 13.644 9.48034 13.7793C9.45381 13.9145 9.46792 14.0546 9.52088 14.1818C9.57384 14.309 9.66329 14.4177 9.77795 14.4942C9.89261 14.5707 10.0273 14.6115 10.1652 14.6115C10.3507 14.6101 10.5281 14.5354 10.6588 14.4038C10.7896 14.2721 10.863 14.0941 10.863 13.9086Z" fill="#131821"/>
</g>
<defs>
<clipPath id="clip0_2186_28">
<rect width="15.8987" height="15.8987" fill="white"/>
</clipPath>
</defs>
</svg>
