<svg width="50" height="50" viewBox="0 0 50 50" fill="none" xmlns="http://www.w3.org/2000/svg">
<path opacity="0.2" d="M15.5478 3.88696L8.07761 10.106L8.08064 10.109V10.1106L6.21881 11.6607V39.6464L15.5474 47.4202V20.7755L34.2045 47.4202L41.6747 41.2011L41.6716 41.1981V41.1966L43.5327 39.6465V11.6608L34.2041 3.88696V30.5317L15.5478 3.88696Z" fill="black"/>
<path d="M43.5333 10.8834L34.2048 3.10962V46.6429L43.5333 38.8691V10.8834Z" fill="#6BA63F"/>
<path d="M6.21909 10.8834L15.5477 3.10962V46.6429L6.21909 38.8691V10.8834Z" fill="#37B4EE"/>
<path d="M15.5476 3.10962L41.6754 40.4239L34.2047 46.6429L8.07697 9.32866L15.5476 3.10962Z" fill="#95D25F"/>
<path d="M34.2048 29.7556V46.6427L41.6719 40.4206L34.2048 29.7556Z" fill="#50A635"/>
<path d="M15.5477 3.10962L8.08096 9.33177L15.5477 19.9967V3.10962Z" fill="#69C657"/>
<path opacity="0.2" d="M15.5477 3.10962L8.0778 9.32866L8.08091 9.33177V9.33333L6.21909 10.8834V11.6608L8.08091 10.1107V10.1092L8.0778 10.106L15.5477 3.887L34.2048 30.5317V29.7543L15.5477 3.10962ZM34.2048 3.10962V3.887L43.5333 11.6608V10.8834L34.2048 3.10962Z" fill="white"/>
</svg>
